<svg width="64" height="64" viewBox="0 0 64 64" fill="none" xmlns="http://www.w3.org/2000/svg">
  <defs>
    <linearGradient id="bg" x1="8" y1="8" x2="56" y2="56" gradientUnits="userSpaceOnUse">
      <stop stop-color="#4F8DFF"/>
      <stop offset="1" stop-color="#A045FF"/>
    </linearGradient>
  </defs>
  <rect x="2" y="2" width="60" height="60" rx="14" fill="url(#bg)"/>
  <g stroke="#F8FAFF" stroke-width="3" stroke-linecap="round" stroke-linejoin="round">
    <rect x="16" y="28" width="32" height="20" rx="4"/>
    <path d="M32 28V48"/>
    <path d="M16 36H48"/>
    <path d="M32 28C27 28 24 26 24 23.5C24 21 26 19 28.8 19C31.6 19 33 21.5 32 24.5"/>
    <path d="M32 28C37 28 40 26 40 23.5C40 21 38 19 35.2 19C32.4 19 31 21.5 32 24.5"/>
  </g>
</svg>
